<svg xmlns="http://www.w3.org/2000/svg" width="430" height="430" style="width:100%;height:100%;transform:translate3d(0,0,0);content-visibility:visible" viewBox="0 0 430 430"><defs><clipPath id="a"><path d="M0 0h430v430H0z"/></clipPath><clipPath id="k"><path d="M0 0h430v430H0z"/></clipPath><clipPath id="j"><path d="M0 0h430v430H0z"/></clipPath><clipPath id="g"><path d="M0 0h430v430H0z"/></clipPath><clipPath id="h"><path d="M0 0h430v430H0z"/></clipPath><clipPath id="i"><path d="M0 0h430v430H0z"/></clipPath><clipPath id="e"><path d="M0 0h430v430H0z"/></clipPath><clipPath id="f"><path d="M0 0h430v430H0z"/></clipPath><clipPath id="b"><path d="M0 0h430v430H0z"/></clipPath><clipPath id="c"><path d="M0 0h430v430H0z"/></clipPath><mask id="d"><path fill="#fff" d="M0 0h430v430H0z"/><path/></mask></defs><g clip-path="url(#a)"><g clip-path="url(#b)" style="display:none"><g fill="none" clip-path="url(#c)" style="display:none"><g style="display:none"><path class="secondary"/><path class="primary"/></g><g style="display:none"><path class="secondary"/><path class="primary"/><path class="secondary"/><path class="primary"/></g><path class="secondary" style="display:none"/><g style="display:none"><path class="secondary"/><path class="secondary"/></g><g mask="url(#d)" style="display:none"><path class="primary"/><path class="primary"/></g></g></g><g clip-path="url(#e)" style="display:none"><g clip-path="url(#f)" style="display:none"><path fill="none" class="primary" style="display:none"/><path fill="none" class="primary" style="display:none"/><path fill="none" class="secondary" style="display:none"/><g style="display:none"><path class="secondary"/><path fill="none" class="secondary"/><path class="secondary"/><path fill="none" class="secondary"/></g><path fill="none" class="secondary" style="display:none"/><g style="display:none"><path class="secondary"/><path fill="none" class="secondary"/><path class="secondary"/><path fill="none" class="secondary"/></g><path fill="none" class="primary" style="display:none"/><path fill="none" class="primary" style="display:none"/><path fill="none" class="primary" style="display:none"/></g></g><g clip-path="url(#g)" style="display:none"><g clip-path="url(#h)" style="display:none"><path fill="none" class="primary" style="display:none"/><path fill="none" class="primary" style="display:none"/><path fill="none" class="secondary" style="display:none"/><g style="display:none"><path class="secondary"/><path fill="none" class="secondary"/><path class="secondary"/><path fill="none" class="secondary"/></g><path fill="none" class="secondary" style="display:none"/><g style="display:none"><path class="secondary"/><path fill="none" class="secondary"/><path class="secondary"/><path fill="none" class="secondary"/></g><path fill="none" class="primary" style="display:none"/><path fill="none" class="primary" style="display:none"/><path fill="none" class="primary" style="display:none"/></g><g clip-path="url(#i)" style="display:none"><path fill="none" class="primary" style="display:none"/><path fill="none" class="primary" style="display:none"/><path fill="none" class="secondary" style="display:none"/><g style="display:none"><path class="secondary"/><path fill="none" class="secondary"/><path class="secondary"/><path fill="none" class="secondary"/></g><path fill="none" class="secondary" style="display:none"/><g style="display:none"><path class="secondary"/><path fill="none" class="secondary"/><path class="secondary"/><path fill="none" class="secondary"/></g><path fill="none" class="primary" style="display:none"/><path fill="none" class="primary" style="display:none"/><path fill="none" class="primary" style="display:none"/></g></g><g fill="none" stroke-linejoin="round" clip-path="url(#j)" style="display:block"><path stroke="#08A88A" stroke-linecap="round" stroke-width="20" d="M134.465-22.436C128.646-82.745 70.718-130.952.178-130.952q0 0 0 0c-74.434 0-134.775 53.136-134.775 118.682 0 34.795 17.004 66.093 44.094 87.801l-.621 55.421 50.685-30.025c12.817 3.563 26.462 5.484 40.617 5.484 8.416 0 16.366-.397 23.869-1.158" class="secondary" style="display:block" transform="translate(183.719 192.382)scale(.606)"/><path stroke="#08A88A" stroke-linecap="round" stroke-width="19.998" d="M207.756 164.001q0 0 0 0m-48.017 0q0 0 0 0" class="secondary" style="display:block"/><path stroke="#08A88A" stroke-width="20" d="M-113.211-10.307c0 55.059 50.686 99.693 113.211 99.693 11.89 0 23.352-1.614 34.119-4.607L76.693 110l-.521-46.553c22.756-18.235 37.039-44.526 37.039-73.754C113.211-65.366 62.525-110 0-110s-113.211 44.634-113.211 99.693z" class="secondary" style="display:block" transform="translate(265.271 246.345)scale(.606)"/><path stroke="#08A88A" stroke-linecap="round" stroke-width="19.998" d="M286.8 229.018q0 0 0 0m-43.03 0q0 0 0 0" class="secondary" style="display:block"/><path stroke="#121331" stroke-linecap="round" stroke-width="12" d="M0-167.5c92.443 0 167.5 75.057 167.5 167.5S92.443 167.5 0 167.5-167.5 92.443-167.5 0-92.443-167.5 0-167.5" class="primary" style="display:block" transform="rotate(-45 367.028 -152.028)"/></g><g fill="none" clip-path="url(#k)" style="display:none"><path class="secondary" style="display:none"/><g style="display:none"><path class="secondary"/><path class="secondary"/></g><path class="secondary" style="display:none"/><g style="display:none"><path class="secondary"/><path class="secondary"/></g><path class="primary" style="display:none"/></g></g></svg>